<svg width="30" height="30" fill="none" xmlns="http://www.w3.org/2000/svg"><path d="M11.44 7.003a1.362 1.362 0 011.92 0l6.707 6.73c.514.512.527 1.342.042 1.87l-6.609 6.63a1.358 1.358 0 01-1.92.007 1.356 1.356 0 010-1.92l5.618-5.702-5.758-5.702a1.341 1.341 0 010-1.913z" fill="#fff"/><path d="M0 15c0 8.286 6.714 15 15 15s15-6.714 15-15S23.286 0 15 0 0 6.714 0 15zm2.308 0c0-3.39 1.32-6.577 3.72-8.971A12.583 12.583 0 0115 2.308c3.39 0 6.577 1.32 8.971 3.72A12.583 12.583 0 0127.692 15c0 3.39-1.32 6.577-3.72 8.971A12.584 12.584 0 0115 27.692c-3.39 0-6.577-1.32-8.971-3.72A12.583 12.583 0 012.308 15z" fill="#fff"/></svg>